<mxfile host="app.diagrams.net" agent="Mozilla/5.0 (Macintosh; Intel Mac OS X 10_15_7) AppleWebKit/537.36 (KHTML, like Gecko) Chrome/131.0.0.0 Safari/537.36" version="24.9.0">
  <diagram id="fQw--9y188VEwE8I2MEH" name="Page-1">
    <mxGraphModel dx="2010" dy="1453" grid="1" gridSize="10" guides="1" tooltips="1" connect="1" arrows="1" fold="1" page="1" pageScale="1" pageWidth="850" pageHeight="1100" math="0" shadow="0">
      <root>
        <mxCell id="0" />
        <mxCell id="1" parent="0" />
        <mxCell id="D9Ns9_MXgBlrkdU56EB6-1" value="" style="group;movable=1;resizable=1;rotatable=1;deletable=1;editable=1;locked=0;connectable=1;" parent="1" vertex="1" connectable="0">
          <mxGeometry x="250" y="80" width="1150" height="960" as="geometry" />
        </mxCell>
        <mxCell id="D9Ns9_MXgBlrkdU56EB6-2" value="" style="rounded=0;whiteSpace=wrap;html=1;fillColor=none;movable=0;resizable=0;rotatable=0;deletable=0;editable=0;locked=1;connectable=0;imageAspect=0;" parent="D9Ns9_MXgBlrkdU56EB6-1" vertex="1">
          <mxGeometry width="1150" height="960.0000000000001" as="geometry" />
        </mxCell>
        <mxCell id="D9Ns9_MXgBlrkdU56EB6-3" value="Заголовок:&lt;div&gt;&lt;p style=&quot;margin: 0px; font-variant-numeric: normal; font-variant-east-asian: normal; font-variant-alternates: normal; font-size-adjust: none; font-kerning: auto; font-optical-sizing: auto; font-feature-settings: normal; font-variation-settings: normal; font-variant-position: normal; font-variant-emoji: normal; font-stretch: normal; font-size: 14px; line-height: normal; font-family: &amp;quot;.AppleSystemUIFont&amp;quot;; color: rgb(14, 14, 14); text-align: start;&quot; class=&quot;p1&quot;&gt;Выполнение вычислений на удаленном сервере&lt;/p&gt;&lt;/div&gt;" style="rounded=0;whiteSpace=wrap;html=1;fillColor=none;movable=1;resizable=1;rotatable=1;deletable=1;editable=1;locked=0;connectable=1;" parent="D9Ns9_MXgBlrkdU56EB6-1" vertex="1">
          <mxGeometry y="885.0000000000001" width="1150" height="75" as="geometry" />
        </mxCell>
        <mxCell id="D9Ns9_MXgBlrkdU56EB6-4" value="узел:&lt;div&gt;А-0&lt;/div&gt;" style="rounded=0;whiteSpace=wrap;html=1;fillColor=none;movable=1;resizable=1;rotatable=1;deletable=1;editable=1;locked=0;connectable=1;" parent="D9Ns9_MXgBlrkdU56EB6-1" vertex="1">
          <mxGeometry y="885.0000000000001" width="176.92430555555555" height="75" as="geometry" />
        </mxCell>
        <mxCell id="D9Ns9_MXgBlrkdU56EB6-5" value="Номер:&lt;div&gt;1&lt;/div&gt;" style="rounded=0;whiteSpace=wrap;html=1;fillColor=none;movable=1;resizable=1;rotatable=1;deletable=1;editable=1;locked=0;connectable=1;" parent="D9Ns9_MXgBlrkdU56EB6-1" vertex="1">
          <mxGeometry x="973.0756944444445" y="885.0000000000001" width="176.92430555555555" height="75" as="geometry" />
        </mxCell>
        <mxCell id="D9Ns9_MXgBlrkdU56EB6-6" value="IDEF0 (AS-IS)" style="rounded=0;whiteSpace=wrap;html=1;fillColor=none;movable=1;resizable=1;rotatable=1;deletable=1;editable=1;locked=0;connectable=1;" parent="D9Ns9_MXgBlrkdU56EB6-1" vertex="1">
          <mxGeometry width="1150" height="60.00000000000001" as="geometry" />
        </mxCell>
        <mxCell id="D9Ns9_MXgBlrkdU56EB6-109" value="" style="endArrow=classic;html=1;rounded=0;exitX=0.083;exitY=0.5;exitDx=0;exitDy=0;exitPerimeter=0;movable=1;resizable=1;rotatable=1;deletable=1;editable=1;locked=0;connectable=1;" parent="D9Ns9_MXgBlrkdU56EB6-1" edge="1">
          <mxGeometry width="50" height="50" relative="1" as="geometry">
            <mxPoint x="979.54" y="609.8" as="sourcePoint" />
            <mxPoint x="1119.54" y="609.8" as="targetPoint" />
          </mxGeometry>
        </mxCell>
        <mxCell id="D9Ns9_MXgBlrkdU56EB6-110" value="" style="endArrow=classic;html=1;rounded=0;exitX=0.083;exitY=0.5;exitDx=0;exitDy=0;exitPerimeter=0;movable=1;resizable=1;rotatable=1;deletable=1;editable=1;locked=0;connectable=1;" parent="D9Ns9_MXgBlrkdU56EB6-1" edge="1">
          <mxGeometry width="50" height="50" relative="1" as="geometry">
            <mxPoint x="979.54" y="577.5" as="sourcePoint" />
            <mxPoint x="1119.54" y="577.5" as="targetPoint" />
          </mxGeometry>
        </mxCell>
        <mxCell id="D9Ns9_MXgBlrkdU56EB6-118" value="O1" style="text;html=1;align=center;verticalAlign=middle;whiteSpace=wrap;rounded=0;movable=1;resizable=1;rotatable=1;deletable=1;editable=1;locked=0;connectable=1;" parent="D9Ns9_MXgBlrkdU56EB6-1" vertex="1">
          <mxGeometry x="979.54" y="547.5" width="30" height="30" as="geometry" />
        </mxCell>
        <mxCell id="D9Ns9_MXgBlrkdU56EB6-119" value="O2" style="text;html=1;align=center;verticalAlign=middle;whiteSpace=wrap;rounded=0;movable=1;resizable=1;rotatable=1;deletable=1;editable=1;locked=0;connectable=1;" parent="D9Ns9_MXgBlrkdU56EB6-1" vertex="1">
          <mxGeometry x="979.54" y="583.8" width="30" height="30" as="geometry" />
        </mxCell>
        <mxCell id="D9Ns9_MXgBlrkdU56EB6-140" value="&lt;p class=&quot;p1&quot; style=&quot;margin: 0px; font-variant-numeric: normal; font-variant-east-asian: normal; font-variant-alternates: normal; font-size-adjust: none; font-kerning: auto; font-optical-sizing: auto; font-feature-settings: normal; font-variation-settings: normal; font-variant-position: normal; font-variant-emoji: normal; font-stretch: normal; line-height: normal;&quot;&gt;&lt;font size=&quot;1&quot; color=&quot;#0e0e0e&quot;&gt;Выполненные задачи&lt;/font&gt;&lt;/p&gt;" style="text;html=1;align=center;verticalAlign=middle;whiteSpace=wrap;rounded=0;movable=1;resizable=1;rotatable=1;deletable=1;editable=1;locked=0;connectable=1;" parent="D9Ns9_MXgBlrkdU56EB6-1" vertex="1">
          <mxGeometry x="1009.54" y="542" width="110" height="40" as="geometry" />
        </mxCell>
        <mxCell id="D9Ns9_MXgBlrkdU56EB6-141" value="&lt;p class=&quot;p1&quot; style=&quot;margin: 0px; font-variant-numeric: normal; font-variant-east-asian: normal; font-variant-alternates: normal; font-size-adjust: none; font-kerning: auto; font-optical-sizing: auto; font-feature-settings: normal; font-variation-settings: normal; font-variant-position: normal; font-variant-emoji: normal; font-stretch: normal; line-height: normal;&quot;&gt;&lt;font size=&quot;1&quot; color=&quot;#0e0e0e&quot;&gt;Логи выполнения&lt;/font&gt;&lt;/p&gt;" style="text;html=1;align=center;verticalAlign=middle;whiteSpace=wrap;rounded=0;movable=1;resizable=1;rotatable=1;deletable=1;editable=1;locked=0;connectable=1;" parent="D9Ns9_MXgBlrkdU56EB6-1" vertex="1">
          <mxGeometry x="1019.54" y="576.8" width="100" height="40" as="geometry" />
        </mxCell>
        <mxCell id="D9Ns9_MXgBlrkdU56EB6-49" value="&lt;p class=&quot;p1&quot; style=&quot;margin: 0px; font-variant-numeric: normal; font-variant-east-asian: normal; font-variant-alternates: normal; font-size-adjust: none; font-kerning: auto; font-optical-sizing: auto; font-feature-settings: normal; font-variation-settings: normal; font-variant-position: normal; font-variant-emoji: normal; font-stretch: normal; font-size: 14px; line-height: normal; font-family: &amp;quot;.AppleSystemUIFont&amp;quot;; color: rgb(14, 14, 14);&quot;&gt;&lt;b&gt;Полуичть запрос от клиента&lt;/b&gt;&lt;/p&gt;" style="rounded=0;whiteSpace=wrap;html=1;fillColor=default;align=center;" parent="1" vertex="1">
          <mxGeometry x="470" y="320" width="120" height="60" as="geometry" />
        </mxCell>
        <mxCell id="D9Ns9_MXgBlrkdU56EB6-50" value="&lt;p style=&quot;margin: 0px; font-variant-numeric: normal; font-variant-east-asian: normal; font-variant-alternates: normal; font-size-adjust: none; font-kerning: auto; font-optical-sizing: auto; font-feature-settings: normal; font-variation-settings: normal; font-variant-position: normal; font-variant-emoji: normal; font-stretch: normal; font-size: 14px; line-height: normal; font-family: &amp;quot;.AppleSystemUIFont&amp;quot;; color: rgb(14, 14, 14);&quot; class=&quot;p1&quot;&gt;&lt;b&gt;Проанализировать запрос&lt;/b&gt;&lt;/p&gt;" style="rounded=0;whiteSpace=wrap;html=1;fillColor=default;align=center;" parent="1" vertex="1">
          <mxGeometry x="630" y="400" width="120" height="60" as="geometry" />
        </mxCell>
        <mxCell id="D9Ns9_MXgBlrkdU56EB6-51" value="&lt;p class=&quot;p1&quot; style=&quot;margin: 0px; font-variant-numeric: normal; font-variant-east-asian: normal; font-variant-alternates: normal; font-size-adjust: none; font-kerning: auto; font-optical-sizing: auto; font-feature-settings: normal; font-variation-settings: normal; font-variant-position: normal; font-variant-emoji: normal; font-stretch: normal; font-size: 14px; line-height: normal; font-family: &amp;quot;.AppleSystemUIFont&amp;quot;; color: rgb(14, 14, 14);&quot;&gt;&lt;b&gt;В ручную сконфигурировать инфраструктуру&lt;/b&gt;&lt;/p&gt;" style="rounded=0;whiteSpace=wrap;html=1;fillColor=default;align=center;" parent="1" vertex="1">
          <mxGeometry x="780" y="480" width="150" height="60" as="geometry" />
        </mxCell>
        <mxCell id="D9Ns9_MXgBlrkdU56EB6-52" value="&lt;p style=&quot;margin: 0px; font-variant-numeric: normal; font-variant-east-asian: normal; font-variant-alternates: normal; font-size-adjust: none; font-kerning: auto; font-optical-sizing: auto; font-feature-settings: normal; font-variation-settings: normal; font-variant-position: normal; font-variant-emoji: normal; font-stretch: normal; font-size: 14px; line-height: normal; font-family: &amp;quot;.AppleSystemUIFont&amp;quot;; color: rgb(14, 14, 14);&quot; class=&quot;p1&quot;&gt;&lt;b&gt;Развернуть и запустить контейнер&lt;/b&gt;&lt;/p&gt;" style="rounded=0;whiteSpace=wrap;html=1;fillColor=default;align=center;" parent="1" vertex="1">
          <mxGeometry x="950" y="560" width="140" height="60" as="geometry" />
        </mxCell>
        <mxCell id="D9Ns9_MXgBlrkdU56EB6-53" value="&lt;p style=&quot;margin: 0px; font-variant-numeric: normal; font-variant-east-asian: normal; font-variant-alternates: normal; font-size-adjust: none; font-kerning: auto; font-optical-sizing: auto; font-feature-settings: normal; font-variation-settings: normal; font-variant-position: normal; font-variant-emoji: normal; font-stretch: normal; line-height: normal; font-family: &amp;quot;.AppleSystemUIFont&amp;quot;; color: rgb(14, 14, 14);&quot; class=&quot;p1&quot;&gt;&lt;b style=&quot;&quot;&gt;&lt;font style=&quot;font-size: 12px;&quot;&gt;Сбрать и отправить результаты клиенту&lt;/font&gt;&lt;/b&gt;&lt;/p&gt;" style="rounded=0;whiteSpace=wrap;html=1;fillColor=default;align=center;" parent="1" vertex="1">
          <mxGeometry x="1110" y="640" width="120" height="60" as="geometry" />
        </mxCell>
        <mxCell id="D9Ns9_MXgBlrkdU56EB6-103" value="" style="endArrow=classic;html=1;rounded=0;exitX=0;exitY=1;exitDx=0;exitDy=0;movable=1;resizable=1;rotatable=1;deletable=1;editable=1;locked=0;connectable=1;" parent="1" source="D9Ns9_MXgBlrkdU56EB6-123" edge="1">
          <mxGeometry width="50" height="50" relative="1" as="geometry">
            <mxPoint x="326.3499999999999" y="369.6500000000002" as="sourcePoint" />
            <mxPoint x="470" y="370" as="targetPoint" />
          </mxGeometry>
        </mxCell>
        <mxCell id="D9Ns9_MXgBlrkdU56EB6-104" value="" style="endArrow=classic;html=1;rounded=0;movable=1;resizable=1;rotatable=1;deletable=1;editable=1;locked=0;connectable=1;entryX=0;entryY=0.5;entryDx=0;entryDy=0;exitX=0;exitY=1;exitDx=0;exitDy=0;" parent="1" source="D9Ns9_MXgBlrkdU56EB6-121" edge="1">
          <mxGeometry width="50" height="50" relative="1" as="geometry">
            <mxPoint x="330" y="330" as="sourcePoint" />
            <mxPoint x="470" y="330" as="targetPoint" />
          </mxGeometry>
        </mxCell>
        <mxCell id="D9Ns9_MXgBlrkdU56EB6-105" value="" style="endArrow=classic;html=1;rounded=0;movable=1;resizable=1;rotatable=1;deletable=1;editable=1;locked=0;connectable=1;entryX=0;entryY=0.5;entryDx=0;entryDy=0;" parent="1" edge="1">
          <mxGeometry width="50" height="50" relative="1" as="geometry">
            <mxPoint x="290" y="517" as="sourcePoint" />
            <mxPoint x="780" y="519" as="targetPoint" />
          </mxGeometry>
        </mxCell>
        <mxCell id="D9Ns9_MXgBlrkdU56EB6-106" value="" style="endArrow=classic;html=1;rounded=0;entryX=0.267;entryY=0;entryDx=0;entryDy=0;movable=1;resizable=1;rotatable=1;deletable=1;editable=1;locked=0;connectable=1;entryPerimeter=0;" parent="1" target="D9Ns9_MXgBlrkdU56EB6-51" edge="1">
          <mxGeometry width="50" height="50" relative="1" as="geometry">
            <mxPoint x="820" y="270" as="sourcePoint" />
            <mxPoint x="833.55" y="320" as="targetPoint" />
          </mxGeometry>
        </mxCell>
        <mxCell id="D9Ns9_MXgBlrkdU56EB6-107" value="" style="endArrow=classic;html=1;rounded=0;entryX=0.25;entryY=0;entryDx=0;entryDy=0;movable=1;resizable=1;rotatable=1;deletable=1;editable=1;locked=0;connectable=1;exitX=1;exitY=0.25;exitDx=0;exitDy=0;" parent="1" source="D9Ns9_MXgBlrkdU56EB6-117" target="D9Ns9_MXgBlrkdU56EB6-50" edge="1">
          <mxGeometry width="50" height="50" relative="1" as="geometry">
            <mxPoint x="660" y="260" as="sourcePoint" />
            <mxPoint x="650" y="290" as="targetPoint" />
          </mxGeometry>
        </mxCell>
        <mxCell id="D9Ns9_MXgBlrkdU56EB6-108" value="" style="endArrow=classic;html=1;rounded=0;entryX=0.8;entryY=0;entryDx=0;entryDy=0;movable=1;resizable=1;rotatable=1;deletable=1;editable=1;locked=0;connectable=1;entryPerimeter=0;" parent="1" target="D9Ns9_MXgBlrkdU56EB6-51" edge="1">
          <mxGeometry width="50" height="50" relative="1" as="geometry">
            <mxPoint x="900" y="270" as="sourcePoint" />
            <mxPoint x="900" y="310" as="targetPoint" />
          </mxGeometry>
        </mxCell>
        <mxCell id="D9Ns9_MXgBlrkdU56EB6-111" value="" style="endArrow=classic;html=1;rounded=0;entryX=0.733;entryY=1;entryDx=0;entryDy=0;movable=1;resizable=1;rotatable=1;deletable=1;editable=1;locked=0;connectable=1;entryPerimeter=0;" parent="1" target="D9Ns9_MXgBlrkdU56EB6-51" edge="1">
          <mxGeometry width="50" height="50" relative="1" as="geometry">
            <mxPoint x="890" y="840" as="sourcePoint" />
            <mxPoint x="886.25" y="540" as="targetPoint" />
          </mxGeometry>
        </mxCell>
        <mxCell id="D9Ns9_MXgBlrkdU56EB6-112" value="I1" style="text;html=1;align=center;verticalAlign=middle;whiteSpace=wrap;rounded=0;movable=1;resizable=1;rotatable=1;deletable=1;editable=1;locked=0;connectable=1;" parent="1" vertex="1">
          <mxGeometry x="430" y="300" width="30" height="30" as="geometry" />
        </mxCell>
        <mxCell id="D9Ns9_MXgBlrkdU56EB6-113" value="I2" style="text;html=1;align=center;verticalAlign=middle;whiteSpace=wrap;rounded=0;movable=1;resizable=1;rotatable=1;deletable=1;editable=1;locked=0;connectable=1;" parent="1" vertex="1">
          <mxGeometry x="430" y="340" width="30" height="30" as="geometry" />
        </mxCell>
        <mxCell id="D9Ns9_MXgBlrkdU56EB6-114" value="I3" style="text;html=1;align=center;verticalAlign=middle;whiteSpace=wrap;rounded=0;movable=1;resizable=1;rotatable=1;deletable=1;editable=1;locked=0;connectable=1;" parent="1" vertex="1">
          <mxGeometry x="430" y="478" width="30" height="30" as="geometry" />
        </mxCell>
        <mxCell id="D9Ns9_MXgBlrkdU56EB6-115" value="C1" style="text;html=1;align=center;verticalAlign=middle;whiteSpace=wrap;rounded=0;movable=1;resizable=1;rotatable=1;deletable=1;editable=1;locked=0;connectable=1;" parent="1" vertex="1">
          <mxGeometry x="870" y="270" width="30" height="30" as="geometry" />
        </mxCell>
        <mxCell id="D9Ns9_MXgBlrkdU56EB6-116" value="C2" style="text;html=1;align=center;verticalAlign=middle;whiteSpace=wrap;rounded=0;movable=1;resizable=1;rotatable=1;deletable=1;editable=1;locked=0;connectable=1;" parent="1" vertex="1">
          <mxGeometry x="780" y="260" width="30" height="30" as="geometry" />
        </mxCell>
        <mxCell id="D9Ns9_MXgBlrkdU56EB6-117" value="C3" style="text;html=1;align=center;verticalAlign=middle;whiteSpace=wrap;rounded=0;movable=1;resizable=1;rotatable=1;deletable=1;editable=1;locked=0;connectable=1;" parent="1" vertex="1">
          <mxGeometry x="630" y="260" width="30" height="30" as="geometry" />
        </mxCell>
        <mxCell id="D9Ns9_MXgBlrkdU56EB6-120" value="M1" style="text;html=1;align=center;verticalAlign=middle;whiteSpace=wrap;rounded=0;movable=1;resizable=1;rotatable=1;deletable=1;editable=1;locked=0;connectable=1;" parent="1" vertex="1">
          <mxGeometry x="924" y="820" width="30" height="30" as="geometry" />
        </mxCell>
        <mxCell id="D9Ns9_MXgBlrkdU56EB6-121" value="&lt;p class=&quot;p1&quot; style=&quot;margin: 0px; font-variant-numeric: normal; font-variant-east-asian: normal; font-variant-alternates: normal; font-size-adjust: none; font-kerning: auto; font-optical-sizing: auto; font-feature-settings: normal; font-variation-settings: normal; font-variant-position: normal; font-variant-emoji: normal; font-stretch: normal; line-height: normal; color: rgb(14, 14, 14);&quot;&gt;&lt;font style=&quot;font-size: 9px;&quot; face=&quot;Helvetica&quot;&gt;Запрос на вычисления или развертывание контейнера&lt;/font&gt;&lt;/p&gt;" style="text;html=1;align=center;verticalAlign=middle;whiteSpace=wrap;rounded=0;movable=1;resizable=1;rotatable=1;deletable=1;editable=1;locked=0;connectable=1;" parent="1" vertex="1">
          <mxGeometry x="290" y="290" width="150" height="40" as="geometry" />
        </mxCell>
        <mxCell id="D9Ns9_MXgBlrkdU56EB6-122" value="&lt;p class=&quot;p1&quot; style=&quot;margin: 0px; font-variant-numeric: normal; font-variant-east-asian: normal; font-variant-alternates: normal; font-size-adjust: none; font-kerning: auto; font-optical-sizing: auto; font-feature-settings: normal; font-variation-settings: normal; font-variant-position: normal; font-variant-emoji: normal; font-stretch: normal; line-height: normal;&quot;&gt;&lt;font color=&quot;#0e0e0e&quot; style=&quot;font-size: 9px; line-height: 100%;&quot;&gt;Ручные инструкции или предварительная настройка инфраструктуры&lt;/font&gt;&lt;/p&gt;" style="text;html=1;align=center;verticalAlign=middle;whiteSpace=wrap;rounded=0;movable=1;resizable=1;rotatable=1;deletable=1;editable=1;locked=0;connectable=1;" parent="1" vertex="1">
          <mxGeometry x="280" y="470" width="150" height="30" as="geometry" />
        </mxCell>
        <mxCell id="D9Ns9_MXgBlrkdU56EB6-123" value="&lt;p class=&quot;p1&quot; style=&quot;margin: 0px; font-variant-numeric: normal; font-variant-east-asian: normal; font-variant-alternates: normal; font-size-adjust: none; font-kerning: auto; font-optical-sizing: auto; font-feature-settings: normal; font-variation-settings: normal; font-variant-position: normal; font-variant-emoji: normal; font-stretch: normal; line-height: normal;&quot;&gt;&lt;font size=&quot;1&quot; color=&quot;#0e0e0e&quot;&gt;Информация о клиенте&lt;/font&gt;&lt;/p&gt;" style="text;html=1;align=center;verticalAlign=middle;whiteSpace=wrap;rounded=0;movable=1;resizable=1;rotatable=1;deletable=1;editable=1;locked=0;connectable=1;" parent="1" vertex="1">
          <mxGeometry x="290" y="345" width="150" height="25" as="geometry" />
        </mxCell>
        <mxCell id="D9Ns9_MXgBlrkdU56EB6-124" value="&lt;p class=&quot;p1&quot; style=&quot;margin: 0px; font-variant-numeric: normal; font-variant-east-asian: normal; font-variant-alternates: normal; font-size-adjust: none; font-kerning: auto; font-optical-sizing: auto; font-feature-settings: normal; font-variation-settings: normal; font-variant-position: normal; font-variant-emoji: normal; font-stretch: normal; line-height: normal;&quot;&gt;&lt;font size=&quot;1&quot; color=&quot;#0e0e0e&quot;&gt;Ручное управление вычислительными ресурсами&lt;/font&gt;&lt;/p&gt;" style="text;html=1;align=center;verticalAlign=middle;whiteSpace=wrap;rounded=0;movable=1;resizable=1;rotatable=1;deletable=1;editable=1;locked=0;connectable=1;" parent="1" vertex="1">
          <mxGeometry x="854" y="205" width="100" height="80" as="geometry" />
        </mxCell>
        <mxCell id="D9Ns9_MXgBlrkdU56EB6-125" value="&lt;p class=&quot;p1&quot; style=&quot;margin: 0px; font-variant-numeric: normal; font-variant-east-asian: normal; font-variant-alternates: normal; font-size-adjust: none; font-kerning: auto; font-optical-sizing: auto; font-feature-settings: normal; font-variation-settings: normal; font-variant-position: normal; font-variant-emoji: normal; font-stretch: normal; line-height: normal;&quot;&gt;&lt;font size=&quot;1&quot; color=&quot;#0e0e0e&quot;&gt;Местные серверы или инфраструктура&lt;/font&gt;&lt;/p&gt;" style="text;html=1;align=center;verticalAlign=middle;whiteSpace=wrap;rounded=0;movable=1;resizable=1;rotatable=1;deletable=1;editable=1;locked=0;connectable=1;" parent="1" vertex="1">
          <mxGeometry x="780" y="220" width="70" height="40" as="geometry" />
        </mxCell>
        <mxCell id="D9Ns9_MXgBlrkdU56EB6-126" value="&lt;p class=&quot;p1&quot; style=&quot;margin: 0px; font-variant-numeric: normal; font-variant-east-asian: normal; font-variant-alternates: normal; font-size-adjust: none; font-kerning: auto; font-optical-sizing: auto; font-feature-settings: normal; font-variation-settings: normal; font-variant-position: normal; font-variant-emoji: normal; font-stretch: normal; line-height: normal;&quot;&gt;&lt;font size=&quot;1&quot; color=&quot;#0e0e0e&quot;&gt;Ограничения по пропускной способности сети&lt;/font&gt;&lt;/p&gt;" style="text;html=1;align=center;verticalAlign=middle;whiteSpace=wrap;rounded=0;movable=1;resizable=1;rotatable=1;deletable=1;editable=1;locked=0;connectable=1;" parent="1" vertex="1">
          <mxGeometry x="613" y="205" width="100" height="62.5" as="geometry" />
        </mxCell>
        <mxCell id="D9Ns9_MXgBlrkdU56EB6-127" value="" style="endArrow=classic;html=1;rounded=0;entryX=0.25;entryY=0;entryDx=0;entryDy=0;movable=1;resizable=1;rotatable=1;deletable=1;editable=1;locked=0;connectable=1;" parent="1" edge="1">
          <mxGeometry width="50" height="50" relative="1" as="geometry">
            <mxPoint x="510" y="270" as="sourcePoint" />
            <mxPoint x="510" y="320" as="targetPoint" />
          </mxGeometry>
        </mxCell>
        <mxCell id="D9Ns9_MXgBlrkdU56EB6-128" value="C4" style="text;html=1;align=center;verticalAlign=middle;whiteSpace=wrap;rounded=0;movable=1;resizable=1;rotatable=1;deletable=1;editable=1;locked=0;connectable=1;" parent="1" vertex="1">
          <mxGeometry x="470" y="280" width="30" height="30" as="geometry" />
        </mxCell>
        <mxCell id="D9Ns9_MXgBlrkdU56EB6-129" value="&lt;p class=&quot;p1&quot; style=&quot;margin: 0px; font-variant-numeric: normal; font-variant-east-asian: normal; font-variant-alternates: normal; font-size-adjust: none; font-kerning: auto; font-optical-sizing: auto; font-feature-settings: normal; font-variation-settings: normal; font-variant-position: normal; font-variant-emoji: normal; font-stretch: normal; line-height: normal;&quot;&gt;&lt;font size=&quot;1&quot; color=&quot;#0e0e0e&quot;&gt;Политики безопасности и соответствия стандартам&lt;/font&gt;&lt;/p&gt;" style="text;html=1;align=center;verticalAlign=middle;whiteSpace=wrap;rounded=0;movable=1;resizable=1;rotatable=1;deletable=1;editable=1;locked=0;connectable=1;" parent="1" vertex="1">
          <mxGeometry x="470" y="196.25" width="90" height="80" as="geometry" />
        </mxCell>
        <mxCell id="D9Ns9_MXgBlrkdU56EB6-130" value="&lt;p class=&quot;p1&quot; style=&quot;margin: 0px; font-variant-numeric: normal; font-variant-east-asian: normal; font-variant-alternates: normal; font-size-adjust: none; font-kerning: auto; font-optical-sizing: auto; font-feature-settings: normal; font-variation-settings: normal; font-variant-position: normal; font-variant-emoji: normal; font-stretch: normal; line-height: normal;&quot;&gt;&lt;font size=&quot;1&quot; color=&quot;#0e0e0e&quot;&gt;Системные администраторы, отвечающие за настройку серверов&lt;/font&gt;&lt;/p&gt;" style="text;html=1;align=center;verticalAlign=middle;whiteSpace=wrap;rounded=0;movable=1;resizable=1;rotatable=1;deletable=1;editable=1;locked=0;connectable=1;" parent="1" vertex="1">
          <mxGeometry x="865" y="861.25" width="70" height="80" as="geometry" />
        </mxCell>
        <mxCell id="D9Ns9_MXgBlrkdU56EB6-131" value="" style="endArrow=classic;html=1;rounded=0;entryX=0.5;entryY=1;entryDx=0;entryDy=0;movable=1;resizable=1;rotatable=1;deletable=1;editable=1;locked=0;connectable=1;" parent="1" target="D9Ns9_MXgBlrkdU56EB6-49" edge="1">
          <mxGeometry width="50" height="50" relative="1" as="geometry">
            <mxPoint x="530" y="840" as="sourcePoint" />
            <mxPoint x="530" y="810" as="targetPoint" />
          </mxGeometry>
        </mxCell>
        <mxCell id="D9Ns9_MXgBlrkdU56EB6-132" value="M2" style="text;html=1;align=center;verticalAlign=middle;whiteSpace=wrap;rounded=0;movable=1;resizable=1;rotatable=1;deletable=1;editable=1;locked=0;connectable=1;" parent="1" vertex="1">
          <mxGeometry x="540" y="810" width="30" height="30" as="geometry" />
        </mxCell>
        <mxCell id="D9Ns9_MXgBlrkdU56EB6-133" value="&lt;p class=&quot;p1&quot; style=&quot;margin: 0px; font-variant-numeric: normal; font-variant-east-asian: normal; font-variant-alternates: normal; font-size-adjust: none; font-kerning: auto; font-optical-sizing: auto; font-feature-settings: normal; font-variation-settings: normal; font-variant-position: normal; font-variant-emoji: normal; font-stretch: normal; line-height: normal;&quot;&gt;&lt;font size=&quot;1&quot; color=&quot;#0e0e0e&quot;&gt;Техническая команда для работы с клиентами&lt;/font&gt;&lt;/p&gt;" style="text;html=1;align=center;verticalAlign=middle;whiteSpace=wrap;rounded=0;movable=1;resizable=1;rotatable=1;deletable=1;editable=1;locked=0;connectable=1;" parent="1" vertex="1">
          <mxGeometry x="510" y="850" width="70" height="42.5" as="geometry" />
        </mxCell>
        <mxCell id="D9Ns9_MXgBlrkdU56EB6-134" value="" style="endArrow=classic;html=1;rounded=0;entryX=0.25;entryY=1;entryDx=0;entryDy=0;movable=1;resizable=1;rotatable=1;deletable=1;editable=1;locked=0;connectable=1;" parent="1" target="D9Ns9_MXgBlrkdU56EB6-49" edge="1">
          <mxGeometry width="50" height="50" relative="1" as="geometry">
            <mxPoint x="500" y="840" as="sourcePoint" />
            <mxPoint x="500" y="797.5" as="targetPoint" />
          </mxGeometry>
        </mxCell>
        <mxCell id="D9Ns9_MXgBlrkdU56EB6-135" value="M3" style="text;html=1;align=center;verticalAlign=middle;whiteSpace=wrap;rounded=0;movable=1;resizable=1;rotatable=1;deletable=1;editable=1;locked=0;connectable=1;" parent="1" vertex="1">
          <mxGeometry x="470" y="810" width="30" height="30" as="geometry" />
        </mxCell>
        <mxCell id="D9Ns9_MXgBlrkdU56EB6-136" value="&lt;p class=&quot;p1&quot; style=&quot;margin: 0px; font-variant-numeric: normal; font-variant-east-asian: normal; font-variant-alternates: normal; font-size-adjust: none; font-kerning: auto; font-optical-sizing: auto; font-feature-settings: normal; font-variation-settings: normal; font-variant-position: normal; font-variant-emoji: normal; font-stretch: normal; line-height: normal;&quot;&gt;&lt;font size=&quot;1&quot; color=&quot;#0e0e0e&quot;&gt;&amp;nbsp;Клиенты&lt;/font&gt;&lt;/p&gt;" style="text;html=1;align=center;verticalAlign=middle;whiteSpace=wrap;rounded=0;movable=1;resizable=1;rotatable=1;deletable=1;editable=1;locked=0;connectable=1;" parent="1" vertex="1">
          <mxGeometry x="450" y="840" width="70" height="20" as="geometry" />
        </mxCell>
        <mxCell id="D9Ns9_MXgBlrkdU56EB6-137" value="" style="endArrow=classic;html=1;rounded=0;entryX=0.25;entryY=1;entryDx=0;entryDy=0;movable=1;resizable=1;rotatable=1;deletable=1;editable=1;locked=0;connectable=1;exitX=0.5;exitY=0;exitDx=0;exitDy=0;" parent="1" source="D9Ns9_MXgBlrkdU56EB6-139" target="D9Ns9_MXgBlrkdU56EB6-51" edge="1">
          <mxGeometry width="50" height="50" relative="1" as="geometry">
            <mxPoint x="835" y="816.25" as="sourcePoint" />
            <mxPoint x="835" y="773.75" as="targetPoint" />
          </mxGeometry>
        </mxCell>
        <mxCell id="D9Ns9_MXgBlrkdU56EB6-138" value="M4" style="text;html=1;align=center;verticalAlign=middle;whiteSpace=wrap;rounded=0;movable=1;resizable=1;rotatable=1;deletable=1;editable=1;locked=0;connectable=1;" parent="1" vertex="1">
          <mxGeometry x="820" y="810" width="30" height="30" as="geometry" />
        </mxCell>
        <mxCell id="D9Ns9_MXgBlrkdU56EB6-139" value="&lt;p class=&quot;p1&quot; style=&quot;margin: 0px; font-variant-numeric: normal; font-variant-east-asian: normal; font-variant-alternates: normal; font-size-adjust: none; font-kerning: auto; font-optical-sizing: auto; font-feature-settings: normal; font-variation-settings: normal; font-variant-position: normal; font-variant-emoji: normal; font-stretch: normal; line-height: normal;&quot;&gt;&lt;font size=&quot;1&quot; color=&quot;#0e0e0e&quot;&gt;Инструменты для мониторинга и управления серверами вручную&lt;/font&gt;&lt;/p&gt;" style="text;html=1;align=center;verticalAlign=middle;whiteSpace=wrap;rounded=0;movable=1;resizable=1;rotatable=1;deletable=1;editable=1;locked=0;connectable=1;" parent="1" vertex="1">
          <mxGeometry x="785" y="840" width="70" height="80" as="geometry" />
        </mxCell>
        <mxCell id="D9Ns9_MXgBlrkdU56EB6-142" value="" style="endArrow=classic;html=1;rounded=0;entryX=0.5;entryY=0;entryDx=0;entryDy=0;" parent="1" target="D9Ns9_MXgBlrkdU56EB6-50" edge="1">
          <mxGeometry width="50" height="50" relative="1" as="geometry">
            <mxPoint x="510" y="300" as="sourcePoint" />
            <mxPoint x="600" y="340" as="targetPoint" />
            <Array as="points">
              <mxPoint x="690" y="300" />
            </Array>
          </mxGeometry>
        </mxCell>
        <mxCell id="D9Ns9_MXgBlrkdU56EB6-143" value="" style="endArrow=classic;html=1;rounded=0;entryX=0.527;entryY=-0.024;entryDx=0;entryDy=0;entryPerimeter=0;" parent="1" target="D9Ns9_MXgBlrkdU56EB6-51" edge="1">
          <mxGeometry width="50" height="50" relative="1" as="geometry">
            <mxPoint x="690" y="300" as="sourcePoint" />
            <mxPoint x="854.9999999999995" y="480" as="targetPoint" />
            <Array as="points">
              <mxPoint x="860" y="300" />
            </Array>
          </mxGeometry>
        </mxCell>
        <mxCell id="D9Ns9_MXgBlrkdU56EB6-144" value="" style="endArrow=classic;html=1;rounded=0;entryX=0.5;entryY=0;entryDx=0;entryDy=0;" parent="1" target="D9Ns9_MXgBlrkdU56EB6-52" edge="1">
          <mxGeometry width="50" height="50" relative="1" as="geometry">
            <mxPoint x="860" y="300" as="sourcePoint" />
            <mxPoint x="980" y="340" as="targetPoint" />
            <Array as="points">
              <mxPoint x="1020" y="300" />
            </Array>
          </mxGeometry>
        </mxCell>
        <mxCell id="D9Ns9_MXgBlrkdU56EB6-145" value="" style="endArrow=classic;html=1;rounded=0;entryX=0.5;entryY=0;entryDx=0;entryDy=0;" parent="1" target="D9Ns9_MXgBlrkdU56EB6-53" edge="1">
          <mxGeometry width="50" height="50" relative="1" as="geometry">
            <mxPoint x="1020" y="300" as="sourcePoint" />
            <mxPoint x="1020" y="330" as="targetPoint" />
            <Array as="points">
              <mxPoint x="1170" y="300" />
            </Array>
          </mxGeometry>
        </mxCell>
        <mxCell id="D9Ns9_MXgBlrkdU56EB6-147" value="" style="endArrow=classic;html=1;rounded=0;entryX=0.214;entryY=0;entryDx=0;entryDy=0;entryPerimeter=0;" parent="1" target="D9Ns9_MXgBlrkdU56EB6-52" edge="1">
          <mxGeometry width="50" height="50" relative="1" as="geometry">
            <mxPoint x="820" y="360" as="sourcePoint" />
            <mxPoint x="950" y="430" as="targetPoint" />
            <Array as="points">
              <mxPoint x="980" y="360" />
            </Array>
          </mxGeometry>
        </mxCell>
        <mxCell id="D9Ns9_MXgBlrkdU56EB6-148" value="" style="endArrow=classic;html=1;rounded=0;entryX=0.25;entryY=0;entryDx=0;entryDy=0;" parent="1" target="D9Ns9_MXgBlrkdU56EB6-53" edge="1">
          <mxGeometry width="50" height="50" relative="1" as="geometry">
            <mxPoint x="980" y="360" as="sourcePoint" />
            <mxPoint x="1020" y="500" as="targetPoint" />
            <Array as="points">
              <mxPoint x="1140" y="360" />
            </Array>
          </mxGeometry>
        </mxCell>
        <mxCell id="D9Ns9_MXgBlrkdU56EB6-149" value="" style="endArrow=classic;html=1;rounded=0;entryX=0.786;entryY=0;entryDx=0;entryDy=0;entryPerimeter=0;" parent="1" target="D9Ns9_MXgBlrkdU56EB6-52" edge="1">
          <mxGeometry width="50" height="50" relative="1" as="geometry">
            <mxPoint x="900" y="330" as="sourcePoint" />
            <mxPoint x="970" y="460" as="targetPoint" />
            <Array as="points">
              <mxPoint x="1060" y="330" />
            </Array>
          </mxGeometry>
        </mxCell>
        <mxCell id="D9Ns9_MXgBlrkdU56EB6-150" value="" style="endArrow=classic;html=1;rounded=0;entryX=0.75;entryY=0;entryDx=0;entryDy=0;" parent="1" target="D9Ns9_MXgBlrkdU56EB6-53" edge="1">
          <mxGeometry width="50" height="50" relative="1" as="geometry">
            <mxPoint x="1060" y="330" as="sourcePoint" />
            <mxPoint x="910" y="520" as="targetPoint" />
            <Array as="points">
              <mxPoint x="1200" y="330" />
            </Array>
          </mxGeometry>
        </mxCell>
        <mxCell id="D9Ns9_MXgBlrkdU56EB6-151" value="" style="endArrow=classic;html=1;rounded=0;entryX=0.5;entryY=1;entryDx=0;entryDy=0;" parent="1" target="D9Ns9_MXgBlrkdU56EB6-50" edge="1">
          <mxGeometry width="50" height="50" relative="1" as="geometry">
            <mxPoint x="530" y="800" as="sourcePoint" />
            <mxPoint x="550" y="620" as="targetPoint" />
            <Array as="points">
              <mxPoint x="690" y="800" />
            </Array>
          </mxGeometry>
        </mxCell>
        <mxCell id="D9Ns9_MXgBlrkdU56EB6-152" value="" style="endArrow=classic;html=1;rounded=0;" parent="1" edge="1">
          <mxGeometry width="50" height="50" relative="1" as="geometry">
            <mxPoint x="690" y="800" as="sourcePoint" />
            <mxPoint x="1170" y="700" as="targetPoint" />
            <Array as="points">
              <mxPoint x="1170" y="800" />
            </Array>
          </mxGeometry>
        </mxCell>
        <mxCell id="D9Ns9_MXgBlrkdU56EB6-153" value="" style="endArrow=classic;html=1;rounded=0;entryX=0.333;entryY=1;entryDx=0;entryDy=0;entryPerimeter=0;" parent="1" target="D9Ns9_MXgBlrkdU56EB6-53" edge="1">
          <mxGeometry width="50" height="50" relative="1" as="geometry">
            <mxPoint x="500" y="780" as="sourcePoint" />
            <mxPoint x="720" y="620" as="targetPoint" />
            <Array as="points">
              <mxPoint x="1150" y="780" />
            </Array>
          </mxGeometry>
        </mxCell>
        <mxCell id="D9Ns9_MXgBlrkdU56EB6-154" value="" style="endArrow=classic;html=1;rounded=0;entryX=0.25;entryY=1;entryDx=0;entryDy=0;" parent="1" target="D9Ns9_MXgBlrkdU56EB6-50" edge="1">
          <mxGeometry width="50" height="50" relative="1" as="geometry">
            <mxPoint x="660" y="780" as="sourcePoint" />
            <mxPoint x="770" y="640" as="targetPoint" />
          </mxGeometry>
        </mxCell>
        <mxCell id="D9Ns9_MXgBlrkdU56EB6-155" value="" style="endArrow=classic;html=1;rounded=0;entryX=0.5;entryY=1;entryDx=0;entryDy=0;" parent="1" target="D9Ns9_MXgBlrkdU56EB6-52" edge="1">
          <mxGeometry width="50" height="50" relative="1" as="geometry">
            <mxPoint x="820" y="760" as="sourcePoint" />
            <mxPoint x="910" y="690" as="targetPoint" />
            <Array as="points">
              <mxPoint x="1020" y="760" />
            </Array>
          </mxGeometry>
        </mxCell>
        <mxCell id="D9Ns9_MXgBlrkdU56EB6-156" value="" style="endArrow=classic;html=1;rounded=0;entryX=0.167;entryY=1;entryDx=0;entryDy=0;entryPerimeter=0;" parent="1" target="D9Ns9_MXgBlrkdU56EB6-53" edge="1">
          <mxGeometry width="50" height="50" relative="1" as="geometry">
            <mxPoint x="1020" y="760" as="sourcePoint" />
            <mxPoint x="1080" y="710" as="targetPoint" />
            <Array as="points">
              <mxPoint x="1130" y="760" />
            </Array>
          </mxGeometry>
        </mxCell>
        <mxCell id="D9Ns9_MXgBlrkdU56EB6-157" value="" style="endArrow=classic;html=1;rounded=0;entryX=0.667;entryY=1;entryDx=0;entryDy=0;entryPerimeter=0;" parent="1" target="D9Ns9_MXgBlrkdU56EB6-53" edge="1">
          <mxGeometry width="50" height="50" relative="1" as="geometry">
            <mxPoint x="890" y="820" as="sourcePoint" />
            <mxPoint x="1210" y="710" as="targetPoint" />
            <Array as="points">
              <mxPoint x="1190" y="820" />
            </Array>
          </mxGeometry>
        </mxCell>
        <mxCell id="D9Ns9_MXgBlrkdU56EB6-158" value="" style="endArrow=classic;html=1;rounded=0;exitX=1;exitY=0.463;exitDx=0;exitDy=0;exitPerimeter=0;entryX=0;entryY=0.5;entryDx=0;entryDy=0;" parent="1" source="D9Ns9_MXgBlrkdU56EB6-49" target="D9Ns9_MXgBlrkdU56EB6-50" edge="1">
          <mxGeometry width="50" height="50" relative="1" as="geometry">
            <mxPoint x="580" y="430" as="sourcePoint" />
            <mxPoint x="630" y="380" as="targetPoint" />
            <Array as="points">
              <mxPoint x="610" y="348" />
              <mxPoint x="610" y="430" />
            </Array>
          </mxGeometry>
        </mxCell>
        <mxCell id="D9Ns9_MXgBlrkdU56EB6-159" value="" style="endArrow=classic;html=1;rounded=0;exitX=1;exitY=0.5;exitDx=0;exitDy=0;entryX=0;entryY=0.25;entryDx=0;entryDy=0;" parent="1" source="D9Ns9_MXgBlrkdU56EB6-50" target="D9Ns9_MXgBlrkdU56EB6-51" edge="1">
          <mxGeometry width="50" height="50" relative="1" as="geometry">
            <mxPoint x="730" y="430" as="sourcePoint" />
            <mxPoint x="780" y="380" as="targetPoint" />
            <Array as="points">
              <mxPoint x="760" y="430" />
              <mxPoint x="760" y="495" />
            </Array>
          </mxGeometry>
        </mxCell>
        <mxCell id="D9Ns9_MXgBlrkdU56EB6-160" value="" style="endArrow=classic;html=1;rounded=0;entryX=0;entryY=0.5;entryDx=0;entryDy=0;exitX=1;exitY=0.5;exitDx=0;exitDy=0;" parent="1" source="D9Ns9_MXgBlrkdU56EB6-51" target="D9Ns9_MXgBlrkdU56EB6-52" edge="1">
          <mxGeometry width="50" height="50" relative="1" as="geometry">
            <mxPoint x="860" y="570" as="sourcePoint" />
            <mxPoint x="910" y="520" as="targetPoint" />
            <Array as="points">
              <mxPoint x="940" y="510" />
              <mxPoint x="940" y="590" />
            </Array>
          </mxGeometry>
        </mxCell>
        <mxCell id="D9Ns9_MXgBlrkdU56EB6-161" value="" style="endArrow=classic;html=1;rounded=0;exitX=1;exitY=0.5;exitDx=0;exitDy=0;entryX=0;entryY=0.5;entryDx=0;entryDy=0;" parent="1" source="D9Ns9_MXgBlrkdU56EB6-52" target="D9Ns9_MXgBlrkdU56EB6-53" edge="1">
          <mxGeometry width="50" height="50" relative="1" as="geometry">
            <mxPoint x="1050" y="570" as="sourcePoint" />
            <mxPoint x="1100" y="520" as="targetPoint" />
            <Array as="points">
              <mxPoint x="1100" y="590" />
              <mxPoint x="1100" y="670" />
            </Array>
          </mxGeometry>
        </mxCell>
        <mxCell id="D9Ns9_MXgBlrkdU56EB6-162" value="&lt;font style=&quot;line-height: 80%; font-size: 7px;&quot;&gt;Подгототовленные данные запроса&lt;/font&gt;" style="text;html=1;align=center;verticalAlign=middle;whiteSpace=wrap;rounded=0;" parent="1" vertex="1">
          <mxGeometry x="594" y="315" width="60" height="30" as="geometry" />
        </mxCell>
        <mxCell id="D9Ns9_MXgBlrkdU56EB6-163" value="&lt;font style=&quot;line-height: 80%; font-size: 7px;&quot;&gt;Подготовлаенная инфраструктура&lt;/font&gt;" style="text;html=1;align=center;verticalAlign=middle;whiteSpace=wrap;rounded=0;" parent="1" vertex="1">
          <mxGeometry x="909" y="430" width="60" height="40" as="geometry" />
        </mxCell>
        <mxCell id="D9Ns9_MXgBlrkdU56EB6-164" value="" style="endArrow=none;html=1;rounded=0;" parent="1" edge="1">
          <mxGeometry width="50" height="50" relative="1" as="geometry">
            <mxPoint x="760" y="430" as="sourcePoint" />
            <mxPoint x="780" y="420" as="targetPoint" />
          </mxGeometry>
        </mxCell>
        <mxCell id="D9Ns9_MXgBlrkdU56EB6-165" value="" style="endArrow=none;html=1;rounded=0;" parent="1" edge="1">
          <mxGeometry width="50" height="50" relative="1" as="geometry">
            <mxPoint x="760" y="410" as="sourcePoint" />
            <mxPoint x="780" y="420" as="targetPoint" />
          </mxGeometry>
        </mxCell>
        <mxCell id="D9Ns9_MXgBlrkdU56EB6-166" value="" style="endArrow=none;html=1;rounded=0;" parent="1" edge="1">
          <mxGeometry width="50" height="50" relative="1" as="geometry">
            <mxPoint x="760" y="410" as="sourcePoint" />
            <mxPoint x="780" y="400" as="targetPoint" />
          </mxGeometry>
        </mxCell>
        <mxCell id="D9Ns9_MXgBlrkdU56EB6-167" value="" style="endArrow=none;html=1;rounded=0;" parent="1" edge="1">
          <mxGeometry width="50" height="50" relative="1" as="geometry">
            <mxPoint x="760" y="390" as="sourcePoint" />
            <mxPoint x="780" y="400" as="targetPoint" />
          </mxGeometry>
        </mxCell>
        <mxCell id="D9Ns9_MXgBlrkdU56EB6-168" value="" style="endArrow=none;html=1;rounded=0;" parent="1" edge="1">
          <mxGeometry width="50" height="50" relative="1" as="geometry">
            <mxPoint x="940" y="510" as="sourcePoint" />
            <mxPoint x="960" y="500" as="targetPoint" />
          </mxGeometry>
        </mxCell>
        <mxCell id="D9Ns9_MXgBlrkdU56EB6-169" value="" style="endArrow=none;html=1;rounded=0;" parent="1" edge="1">
          <mxGeometry width="50" height="50" relative="1" as="geometry">
            <mxPoint x="940" y="490" as="sourcePoint" />
            <mxPoint x="960" y="500" as="targetPoint" />
          </mxGeometry>
        </mxCell>
        <mxCell id="D9Ns9_MXgBlrkdU56EB6-170" value="" style="endArrow=none;html=1;rounded=0;" parent="1" edge="1">
          <mxGeometry width="50" height="50" relative="1" as="geometry">
            <mxPoint x="940" y="490" as="sourcePoint" />
            <mxPoint x="960" y="480" as="targetPoint" />
          </mxGeometry>
        </mxCell>
        <mxCell id="D9Ns9_MXgBlrkdU56EB6-171" value="" style="endArrow=none;html=1;rounded=0;" parent="1" edge="1">
          <mxGeometry width="50" height="50" relative="1" as="geometry">
            <mxPoint x="940" y="470" as="sourcePoint" />
            <mxPoint x="960" y="480" as="targetPoint" />
          </mxGeometry>
        </mxCell>
        <mxCell id="D9Ns9_MXgBlrkdU56EB6-172" value="" style="endArrow=none;html=1;rounded=0;" parent="1" edge="1">
          <mxGeometry width="50" height="50" relative="1" as="geometry">
            <mxPoint x="1100" y="590" as="sourcePoint" />
            <mxPoint x="1120" y="580" as="targetPoint" />
          </mxGeometry>
        </mxCell>
        <mxCell id="D9Ns9_MXgBlrkdU56EB6-173" value="" style="endArrow=none;html=1;rounded=0;" parent="1" edge="1">
          <mxGeometry width="50" height="50" relative="1" as="geometry">
            <mxPoint x="1100" y="570" as="sourcePoint" />
            <mxPoint x="1120" y="580" as="targetPoint" />
          </mxGeometry>
        </mxCell>
        <mxCell id="D9Ns9_MXgBlrkdU56EB6-174" value="" style="endArrow=none;html=1;rounded=0;" parent="1" edge="1">
          <mxGeometry width="50" height="50" relative="1" as="geometry">
            <mxPoint x="1100" y="570" as="sourcePoint" />
            <mxPoint x="1120" y="560" as="targetPoint" />
          </mxGeometry>
        </mxCell>
        <mxCell id="D9Ns9_MXgBlrkdU56EB6-175" value="" style="endArrow=none;html=1;rounded=0;" parent="1" edge="1">
          <mxGeometry width="50" height="50" relative="1" as="geometry">
            <mxPoint x="1100" y="550" as="sourcePoint" />
            <mxPoint x="1120" y="560" as="targetPoint" />
          </mxGeometry>
        </mxCell>
        <mxCell id="D9Ns9_MXgBlrkdU56EB6-176" value="&lt;font style=&quot;line-height: 80%; font-size: 7px;&quot;&gt;Результат выполнения вычислений&amp;nbsp;&lt;/font&gt;" style="text;html=1;align=center;verticalAlign=middle;whiteSpace=wrap;rounded=0;" parent="1" vertex="1">
          <mxGeometry x="1070" y="508" width="60" height="40" as="geometry" />
        </mxCell>
        <mxCell id="D9Ns9_MXgBlrkdU56EB6-177" value="&lt;font style=&quot;line-height: 80%; font-size: 7px;&quot;&gt;Запрос на выполнение вычислений&lt;/font&gt;" style="text;html=1;align=center;verticalAlign=middle;whiteSpace=wrap;rounded=0;" parent="1" vertex="1">
          <mxGeometry x="730" y="340" width="60" height="50" as="geometry" />
        </mxCell>
        <mxCell id="D9Ns9_MXgBlrkdU56EB6-178" value="" style="endArrow=classic;html=1;rounded=0;entryX=0.75;entryY=1;entryDx=0;entryDy=0;" parent="1" target="D9Ns9_MXgBlrkdU56EB6-52" edge="1">
          <mxGeometry width="50" height="50" relative="1" as="geometry">
            <mxPoint x="1055" y="780" as="sourcePoint" />
            <mxPoint x="960" y="620" as="targetPoint" />
          </mxGeometry>
        </mxCell>
        <mxCell id="D9Ns9_MXgBlrkdU56EB6-179" value="" style="endArrow=classic;html=1;rounded=0;entryX=0.279;entryY=1.046;entryDx=0;entryDy=0;entryPerimeter=0;" parent="1" target="D9Ns9_MXgBlrkdU56EB6-52" edge="1">
          <mxGeometry width="50" height="50" relative="1" as="geometry">
            <mxPoint x="890" y="720" as="sourcePoint" />
            <mxPoint x="990" y="660" as="targetPoint" />
            <Array as="points">
              <mxPoint x="990" y="720" />
            </Array>
          </mxGeometry>
        </mxCell>
        <mxCell id="D9Ns9_MXgBlrkdU56EB6-181" value="" style="endArrow=none;html=1;rounded=0;exitX=-0.001;exitY=0.168;exitDx=0;exitDy=0;exitPerimeter=0;entryX=0.084;entryY=0.003;entryDx=0;entryDy=0;entryPerimeter=0;" parent="1" source="D9Ns9_MXgBlrkdU56EB6-49" target="D9Ns9_MXgBlrkdU56EB6-49" edge="1">
          <mxGeometry width="50" height="50" relative="1" as="geometry">
            <mxPoint x="460" y="350" as="sourcePoint" />
            <mxPoint x="510" y="300" as="targetPoint" />
          </mxGeometry>
        </mxCell>
        <mxCell id="D9Ns9_MXgBlrkdU56EB6-183" value="" style="endArrow=none;html=1;rounded=0;exitX=-0.001;exitY=0.16;exitDx=0;exitDy=0;exitPerimeter=0;entryX=0.078;entryY=0.01;entryDx=0;entryDy=0;entryPerimeter=0;" parent="1" source="D9Ns9_MXgBlrkdU56EB6-50" target="D9Ns9_MXgBlrkdU56EB6-50" edge="1">
          <mxGeometry width="50" height="50" relative="1" as="geometry">
            <mxPoint x="620" y="430" as="sourcePoint" />
            <mxPoint x="670" y="380" as="targetPoint" />
          </mxGeometry>
        </mxCell>
        <mxCell id="D9Ns9_MXgBlrkdU56EB6-184" value="" style="endArrow=none;html=1;rounded=0;exitX=0.002;exitY=0.148;exitDx=0;exitDy=0;exitPerimeter=0;entryX=0.062;entryY=0.006;entryDx=0;entryDy=0;entryPerimeter=0;" parent="1" source="D9Ns9_MXgBlrkdU56EB6-51" target="D9Ns9_MXgBlrkdU56EB6-51" edge="1">
          <mxGeometry width="50" height="50" relative="1" as="geometry">
            <mxPoint x="820" y="550" as="sourcePoint" />
            <mxPoint x="870" y="500" as="targetPoint" />
          </mxGeometry>
        </mxCell>
        <mxCell id="D9Ns9_MXgBlrkdU56EB6-185" value="" style="endArrow=none;html=1;rounded=0;exitX=0.001;exitY=0.16;exitDx=0;exitDy=0;exitPerimeter=0;entryX=0.071;entryY=-0.003;entryDx=0;entryDy=0;entryPerimeter=0;" parent="1" source="D9Ns9_MXgBlrkdU56EB6-52" target="D9Ns9_MXgBlrkdU56EB6-52" edge="1">
          <mxGeometry width="50" height="50" relative="1" as="geometry">
            <mxPoint x="970" y="610" as="sourcePoint" />
            <mxPoint x="1020" y="560" as="targetPoint" />
          </mxGeometry>
        </mxCell>
        <mxCell id="D9Ns9_MXgBlrkdU56EB6-186" value="" style="endArrow=none;html=1;rounded=0;exitX=0;exitY=0.163;exitDx=0;exitDy=0;exitPerimeter=0;entryX=0.08;entryY=0;entryDx=0;entryDy=0;entryPerimeter=0;" parent="1" source="D9Ns9_MXgBlrkdU56EB6-53" target="D9Ns9_MXgBlrkdU56EB6-53" edge="1">
          <mxGeometry width="50" height="50" relative="1" as="geometry">
            <mxPoint x="1100" y="670" as="sourcePoint" />
            <mxPoint x="1150" y="620" as="targetPoint" />
          </mxGeometry>
        </mxCell>
      </root>
    </mxGraphModel>
  </diagram>
</mxfile>
